<svg width="25" height="24" viewBox="0 0 25 24" fill="none" xmlns="http://www.w3.org/2000/svg">
<mask id="mask0_616_1326" style="mask-type:alpha" maskUnits="userSpaceOnUse" x="0" y="0" width="25" height="24">
<rect x="0.25" width="24" height="24" fill="#D9D9D9"/>
</mask>
<g mask="url(#mask0_616_1326)">
<path d="M5.25 11C4.84103 11 4.4888 10.8522 4.1933 10.5567C3.89778 10.2612 3.75002 9.90897 3.75002 9.5V4.99998C3.75002 4.59101 3.89778 4.23878 4.1933 3.94328C4.4888 3.64776 4.84103 3.5 5.25 3.5H9.75002C10.159 3.5 10.5112 3.64776 10.8067 3.94328C11.1022 4.23878 11.25 4.59101 11.25 4.99998V9.5C11.25 9.90897 11.1022 10.2612 10.8067 10.5567C10.5112 10.8522 10.159 11 9.75002 11H5.25ZM5.25 20.5C4.84103 20.5 4.4888 20.3522 4.1933 20.0567C3.89778 19.7612 3.75002 19.4089 3.75002 19V14.5C3.75002 14.091 3.89778 13.7387 4.1933 13.4432C4.4888 13.1477 4.84103 13 5.25 13H9.75002C10.159 13 10.5112 13.1477 10.8067 13.4432C11.1022 13.7387 11.25 14.091 11.25 14.5V19C11.25 19.4089 11.1022 19.7612 10.8067 20.0567C10.5112 20.3522 10.159 20.5 9.75002 20.5H5.25ZM14.75 11C14.341 11 13.9888 10.8522 13.6932 10.5567C13.3977 10.2612 13.25 9.90897 13.25 9.5V4.99998C13.25 4.59101 13.3977 4.23878 13.6932 3.94328C13.9888 3.64776 14.341 3.5 14.75 3.5H19.25C19.659 3.5 20.0112 3.64776 20.3067 3.94328C20.6022 4.23878 20.75 4.59101 20.75 4.99998V9.5C20.75 9.90897 20.6022 10.2612 20.3067 10.5567C20.0112 10.8522 19.659 11 19.25 11H14.75ZM14.75 20.5C14.341 20.5 13.9888 20.3522 13.6932 20.0567C13.3977 19.7612 13.25 19.4089 13.25 19V14.5C13.25 14.091 13.3977 13.7387 13.6932 13.4432C13.9888 13.1477 14.341 13 14.75 13H19.25C19.659 13 20.0112 13.1477 20.3067 13.4432C20.6022 13.7387 20.75 14.091 20.75 14.5V19C20.75 19.4089 20.6022 19.7612 20.3067 20.0567C20.0112 20.3522 19.659 20.5 19.25 20.5H14.75ZM5.25 9.5H9.75002V4.99998H5.25V9.5ZM14.75 9.5H19.25V4.99998H14.75V9.5ZM14.75 19H19.25V14.5H14.75V19ZM5.25 19H9.75002V14.5H5.25V19Z" fill="#00123D" fill-opacity="0.5"/>
</g>
</svg>
