<svg width="25" height="24" viewBox="0 0 25 24" fill="none" xmlns="http://www.w3.org/2000/svg">
<mask id="mask0_616_2261" style="mask-type:alpha" maskUnits="userSpaceOnUse" x="0" y="0" width="25" height="24">
<rect x="0.25" width="24" height="24" fill="#D9D9D9"/>
</mask>
<g mask="url(#mask0_616_2261)">
<path d="M5.25001 11C4.84104 11 4.48881 10.8523 4.19331 10.5568C3.89779 10.2612 3.75003 9.909 3.75003 9.50003V5.00001C3.75003 4.59104 3.89779 4.23881 4.19331 3.94331C4.48881 3.64779 4.84104 3.50003 5.25001 3.50003H9.75003C10.159 3.50003 10.5112 3.64779 10.8068 3.94331C11.1023 4.23881 11.25 4.59104 11.25 5.00001V9.50003C11.25 9.909 11.1023 10.2612 10.8068 10.5568C10.5112 10.8523 10.159 11 9.75003 11H5.25001ZM5.25001 20.5C4.84104 20.5 4.48881 20.3522 4.19331 20.0567C3.89779 19.7612 3.75003 19.409 3.75003 19V14.5C3.75003 14.091 3.89779 13.7388 4.19331 13.4433C4.48881 13.1478 4.84104 13 5.25001 13H9.75003C10.159 13 10.5112 13.1478 10.8068 13.4433C11.1023 13.7388 11.25 14.091 11.25 14.5V19C11.25 19.409 11.1023 19.7612 10.8068 20.0567C10.5112 20.3522 10.159 20.5 9.75003 20.5H5.25001ZM14.75 11C14.341 11 13.9888 10.8523 13.6933 10.5568C13.3978 10.2612 13.25 9.909 13.25 9.50003V5.00001C13.25 4.59104 13.3978 4.23881 13.6933 3.94331C13.9888 3.64779 14.341 3.50003 14.75 3.50003H19.25C19.659 3.50003 20.0112 3.64779 20.3067 3.94331C20.6022 4.23881 20.75 4.59104 20.75 5.00001V9.50003C20.75 9.909 20.6022 10.2612 20.3067 10.5568C20.0112 10.8523 19.659 11 19.25 11H14.75ZM14.75 20.5C14.341 20.5 13.9888 20.3522 13.6933 20.0567C13.3978 19.7612 13.25 19.409 13.25 19V14.5C13.25 14.091 13.3978 13.7388 13.6933 13.4433C13.9888 13.1478 14.341 13 14.75 13H19.25C19.659 13 20.0112 13.1478 20.3067 13.4433C20.6022 13.7388 20.75 14.091 20.75 14.5V19C20.75 19.409 20.6022 19.7612 20.3067 20.0567C20.0112 20.3522 19.659 20.5 19.25 20.5H14.75Z" fill="#003ECF"/>
</g>
</svg>
