<svg width="25" height="24" viewBox="0 0 25 24" fill="none" xmlns="http://www.w3.org/2000/svg">
<mask id="mask0_616_1423" style="mask-type:alpha" maskUnits="userSpaceOnUse" x="0" y="0" width="25" height="24">
<rect x="0.75" width="24" height="24" fill="#D9D9D9"/>
</mask>
<g mask="url(#mask0_616_1423)">
<path d="M6.75 20.5C6.34103 20.5 5.9888 20.3523 5.6933 20.0568C5.39778 19.7613 5.25002 19.409 5.25002 19.0001V10.0001C5.25002 9.76032 5.30323 9.53565 5.40965 9.32603C5.51605 9.11643 5.6622 8.9424 5.8481 8.80393L11.8481 4.2847C11.9865 4.18342 12.1301 4.10906 12.2788 4.06163C12.4276 4.0142 12.5846 3.99048 12.75 3.99048C12.9154 3.99048 13.0724 4.0142 13.2211 4.06163C13.3699 4.10906 13.5134 4.18342 13.6519 4.2847L19.6519 8.80393C19.8378 8.9424 19.9839 9.11643 20.0903 9.32603C20.1968 9.53565 20.25 9.76032 20.25 10.0001V19.0001C20.25 19.409 20.1022 19.7613 19.8067 20.0568C19.5112 20.3523 19.159 20.5 18.75 20.5H14.6538V13.8077H10.8461V20.5H6.75Z" fill="#003ECF"/>
</g>
</svg>
