<svg width="25" height="24" viewBox="0 0 25 24" fill="none" xmlns="http://www.w3.org/2000/svg">
<mask id="mask0_616_2255" style="mask-type:alpha" maskUnits="userSpaceOnUse" x="0" y="0" width="25" height="24">
<rect x="0.75" width="24" height="24" fill="#D9D9D9"/>
</mask>
<g mask="url(#mask0_616_2255)">
<path d="M6.75001 19H10.0962V13.0577H15.4038V19H18.75V9.99999L12.75 5.48077L6.75001 9.99999V19ZM6.75001 20.5C6.34104 20.5 5.98881 20.3522 5.69331 20.0567C5.39779 19.7612 5.25003 19.409 5.25003 19V9.99999C5.25003 9.76326 5.30299 9.53898 5.40891 9.32717C5.51481 9.11535 5.66121 8.94092 5.84811 8.80387L11.8481 4.28464C11.9866 4.18336 12.1308 4.109 12.2809 4.06157C12.431 4.01413 12.5874 3.99042 12.75 3.99042C12.9126 3.99042 13.069 4.01413 13.2191 4.06157C13.3692 4.109 13.5135 4.18336 13.6519 4.28464L19.6519 8.80387C19.8388 8.94092 19.9852 9.11535 20.0911 9.32717C20.197 9.53898 20.25 9.76326 20.25 9.99999V19C20.25 19.409 20.1022 19.7612 19.8067 20.0567C19.5112 20.3522 19.159 20.5 18.75 20.5H13.9039V14.5576H11.5962V20.5H6.75001Z" fill="#00123D" fill-opacity="0.5"/>
</g>
</svg>
