<svg width="18" height="18" viewBox="0 0 16 16" fill="none" xmlns="http://www.w3.org/2000/svg">
<path d="M7.38464 15.5C7.13335 15.5 6.92309 15.4154 6.75386 15.2461C6.58463 15.0769 6.50001 14.8666 6.50001 14.6154V8.82691L0.90196 1.71541C0.70966 1.45899 0.681777 1.19232 0.81831 0.915407C0.954844 0.63849 1.18529 0.500031 1.50964 0.500031H14.4903C14.8147 0.500031 15.0451 0.63849 15.1817 0.915407C15.3182 1.19232 15.2903 1.45899 15.098 1.71541L9.49996 8.82691V14.6154C9.49996 14.8666 9.41534 15.0769 9.24611 15.2461C9.07688 15.4154 8.86662 15.5 8.61534 15.5H7.38464ZM7.99999 8.30001L12.95 2.00001H3.04999L7.99999 8.30001Z" fill="white"/>
</svg>
