<svg width="18" height="18" viewBox="0 0 18 18" fill="none" xmlns="http://www.w3.org/2000/svg">
<path d="M6.51922 12.6153C4.81154 12.6153 3.36539 12.023 2.18079 10.8384C0.996178 9.65383 0.40387 8.20768 0.40387 6.49999C0.40387 4.79231 0.996178 3.34616 2.18079 2.16154C3.36539 0.976943 4.81154 0.384644 6.51922 0.384644C8.2269 0.384644 9.67305 0.976943 10.8577 2.16154C12.0423 3.34616 12.6346 4.79231 12.6346 6.49999C12.6346 7.21409 12.5147 7.89614 12.275 8.54614C12.0352 9.19614 11.7153 9.76153 11.3153 10.2423L17.0692 15.9961C17.2077 16.1346 17.2785 16.3087 17.2817 16.5183C17.2849 16.7279 17.2141 16.9051 17.0692 17.05C16.9243 17.1948 16.7487 17.2673 16.5423 17.2673C16.3359 17.2673 16.1603 17.1948 16.0154 17.05L10.2615 11.2961C9.76152 11.7089 9.18652 12.032 8.53652 12.2653C7.88652 12.4987 7.21409 12.6153 6.51922 12.6153ZM6.51922 11.1154C7.80769 11.1154 8.89904 10.6683 9.79327 9.77404C10.6875 8.87981 11.1346 7.78846 11.1346 6.49999C11.1346 5.21153 10.6875 4.12018 9.79327 3.22594C8.89904 2.33171 7.80769 1.88459 6.51922 1.88459C5.23075 1.88459 4.1394 2.33171 3.24517 3.22594C2.35095 4.12018 1.90384 5.21153 1.90384 6.49999C1.90384 7.78846 2.35095 8.87981 3.24517 9.77404C4.1394 10.6683 5.23075 11.1154 6.51922 11.1154Z" fill="#003ECF"/>
</svg>
