<svg width="25" height="24" viewBox="0 0 25 24" fill="none" xmlns="http://www.w3.org/2000/svg">
<mask id="mask0_616_746" style="mask-type:alpha" maskUnits="userSpaceOnUse" x="0" y="0" width="25" height="24">
<rect x="0.5" width="24" height="24" fill="#D9D9D9"/>
</mask>
<g mask="url(#mask0_616_746)">
<path d="M4.25 11.05V18.95C4.25 19.0333 4.27933 19.1043 4.338 19.163C4.396 19.221 4.46667 19.25 4.55 19.25H8.75V10.75H4.55C4.46667 10.75 4.396 10.779 4.338 10.837C4.27933 10.8957 4.25 10.9667 4.25 11.05ZM10.25 5.05V19.25H14.75V5.05C14.75 4.96667 14.721 4.896 14.663 4.838C14.6043 4.77933 14.5333 4.75 14.45 4.75H10.55C10.4667 4.75 10.396 4.77933 10.338 4.838C10.2793 4.896 10.25 4.96667 10.25 5.05ZM16.25 12.75V19.25H20.45C20.5333 19.25 20.6043 19.221 20.663 19.163C20.721 19.1043 20.75 19.0333 20.75 18.95V13.05C20.75 12.9667 20.721 12.8957 20.663 12.837C20.6043 12.779 20.5333 12.75 20.45 12.75H16.25ZM20.45 20.75H4.55C4.05 20.75 3.625 20.575 3.275 20.225C2.925 19.875 2.75 19.45 2.75 18.95V11.05C2.75 10.55 2.925 10.125 3.275 9.775C3.625 9.425 4.05 9.25 4.55 9.25H8.75V5.05C8.75 4.55 8.925 4.125 9.275 3.775C9.625 3.425 10.05 3.25 10.55 3.25H14.45C14.95 3.25 15.375 3.425 15.725 3.775C16.075 4.125 16.25 4.55 16.25 5.05V11.25H20.45C20.95 11.25 21.375 11.425 21.725 11.775C22.075 12.125 22.25 12.55 22.25 13.05V18.95C22.25 19.45 22.075 19.875 21.725 20.225C21.375 20.575 20.95 20.75 20.45 20.75Z" fill="#00123D" fill-opacity="0.5"/>
</g>
</svg>
