<svg width="25" height="24" viewBox="0 0 25 24" fill="none" xmlns="http://www.w3.org/2000/svg">
<mask id="mask0_616_750" style="mask-type:alpha" maskUnits="userSpaceOnUse" x="0" y="0" width="25" height="24">
<rect x="0.5" width="24" height="24" fill="#D9D9D9"/>
</mask>
<g mask="url(#mask0_616_750)">
<path d="M4.075 20.75C3.825 20.75 3.61267 20.6627 3.438 20.488C3.26267 20.3127 3.175 20.1 3.175 19.85V10.15C3.175 9.9 3.26267 9.68733 3.438 9.512C3.61267 9.33733 3.825 9.25 4.075 9.25H7.275C7.525 9.25 7.73767 9.33733 7.913 9.512C8.08767 9.68733 8.175 9.9 8.175 10.15V19.85C8.175 20.1 8.08767 20.3127 7.913 20.488C7.73767 20.6627 7.525 20.75 7.275 20.75H4.075ZM10.9 20.75C10.65 20.75 10.4373 20.6627 10.262 20.488C10.0873 20.3127 10 20.1 10 19.85V4.15C10 3.9 10.0873 3.68733 10.262 3.512C10.4373 3.33733 10.65 3.25 10.9 3.25H14.1C14.35 3.25 14.5627 3.33733 14.738 3.512C14.9127 3.68733 15 3.9 15 4.15V19.85C15 20.1 14.9127 20.3127 14.738 20.488C14.5627 20.6627 14.35 20.75 14.1 20.75H10.9ZM17.7 20.75C17.45 20.75 17.2373 20.6627 17.062 20.488C16.8873 20.3127 16.8 20.1 16.8 19.85V12.15C16.8 11.9 16.8873 11.6873 17.062 11.512C17.2373 11.3373 17.45 11.25 17.7 11.25H20.9C21.1667 11.25 21.3833 11.3373 21.55 11.512C21.7167 11.6873 21.8 11.9 21.8 12.15V19.85C21.8 20.1 21.7167 20.3127 21.55 20.488C21.3833 20.6627 21.1667 20.75 20.9 20.75H17.7Z" fill="#003ECF"/>
</g>
</svg>
