<svg width="142" height="24" viewBox="0 0 142 24" fill="none" xmlns="http://www.w3.org/2000/svg">
<path d="M12.9414 23V14.123H5.67578V23H0.00683594V0.792969H5.67578V9.14258H12.9414V0.792969H18.6104V23H12.9414ZM33.1123 23V21.2275H33.0537C32.6436 22.0771 32.0479 22.6875 31.2666 23.0586C30.5928 23.3809 29.748 23.542 28.7324 23.542C26.6133 23.542 24.9824 22.8438 23.8398 21.4473C23.2148 20.666 22.7998 19.8555 22.5947 19.0156C22.4287 18.3809 22.3457 17.4775 22.3457 16.3057V6.34473H27.3262V15.5586C27.3262 16.6328 27.4922 17.4238 27.8242 17.9316C28.2344 18.5664 28.957 18.8838 29.9922 18.8838C31.8965 18.8838 32.8486 17.7559 32.8486 15.5V6.34473H37.8291V23H33.1123ZM58.0439 14.8701C58.0439 15.3486 58.0049 15.7881 57.9268 16.1885H45.4463C45.7588 18.2881 47.0576 19.3379 49.3428 19.3379C50.5342 19.3379 51.5449 18.8203 52.375 17.7852H57.4727C56.7305 19.5137 55.666 20.8906 54.2793 21.916C52.8047 23 51.1592 23.542 49.3428 23.542C46.9111 23.542 44.8359 22.6777 43.1172 20.9492C41.3887 19.2305 40.5244 17.1553 40.5244 14.7236C40.5244 12.2822 41.3691 10.1875 43.0586 8.43945C44.7676 6.66211 46.833 5.77344 49.2549 5.77344C51.7744 5.77344 53.8789 6.66211 55.5684 8.43945C57.2188 10.1875 58.0439 12.3311 58.0439 14.8701ZM53.0635 12.834C52.6533 10.9297 51.3936 9.97754 49.2842 9.97754C47.1748 9.97754 45.915 10.9297 45.5049 12.834H53.0635ZM61.0322 23V0.792969H73.3662V5.77344H66.4668V9.23047H73.1465V14.2109H66.4668V18.0195H73.3662V23H61.0322ZM93.4932 16.6719C93.0146 18.7031 91.9648 20.3584 90.3438 21.6377C88.7324 22.9072 86.8721 23.542 84.7627 23.542C82.2725 23.542 80.168 22.6777 78.4492 20.9492C76.7207 19.2305 75.8564 17.126 75.8564 14.6357C75.8564 12.165 76.7012 10.0752 78.3906 8.36621C80.0898 6.6377 82.1748 5.77344 84.6455 5.77344C86.8037 5.77344 88.6982 6.41309 90.3291 7.69238C91.9893 8.98145 93.0342 10.6758 93.4639 12.7754H88.4248C87.7021 11.2129 86.4619 10.4316 84.7041 10.4316C83.542 10.4316 82.6045 10.8564 81.8916 11.7061C81.208 12.5068 80.8662 13.4932 80.8662 14.665C80.8662 15.8662 81.2227 16.8623 81.9355 17.6533C82.6777 18.4736 83.6396 18.8838 84.8213 18.8838C86.4521 18.8838 87.6533 18.1465 88.4248 16.6719H93.4932ZM113.4 14.665C113.4 17.2041 112.541 19.3135 110.822 20.9932C109.113 22.6729 106.979 23.5127 104.421 23.5127C101.862 23.5127 99.7334 22.6729 98.0342 20.9932C96.3154 19.3135 95.4561 17.2041 95.4561 14.665C95.4561 12.1162 96.3154 10.002 98.0342 8.32227C99.7334 6.64258 101.862 5.80273 104.421 5.80273C106.979 5.80273 109.113 6.64258 110.822 8.32227C112.541 10.002 113.4 12.1162 113.4 14.665ZM108.42 14.665C108.42 13.5127 108.044 12.5312 107.292 11.7207C106.521 10.8809 105.563 10.4609 104.421 10.4609C103.288 10.4609 102.336 10.8809 101.564 11.7207C100.812 12.5312 100.437 13.5127 100.437 14.665C100.437 15.8076 100.812 16.7891 101.564 17.6094C102.336 18.4395 103.288 18.8545 104.421 18.8545C105.563 18.8545 106.521 18.4395 107.292 17.6094C108.044 16.7891 108.42 15.8076 108.42 14.665ZM136.794 23V14.1523C136.794 13.0098 136.657 12.165 136.384 11.6182C135.993 10.8467 135.28 10.4609 134.245 10.4609C133.22 10.4609 132.482 10.7979 132.033 11.4717C131.662 12.0283 131.477 12.8389 131.477 13.9033V23H126.496V13.9473C126.496 12.9121 126.345 12.1162 126.042 11.5596C125.642 10.8271 124.963 10.4609 124.006 10.4609C122.951 10.4609 122.194 10.832 121.735 11.5742C121.374 12.1602 121.193 13.0195 121.193 14.1523V23H116.213V6.34473H120.856V8.11719H120.93C121.379 7.30664 122.023 6.70605 122.863 6.31543C123.615 5.9541 124.499 5.77344 125.515 5.77344C127.644 5.77344 129.245 6.76465 130.319 8.74707C131.569 6.76465 133.327 5.77344 135.593 5.77344C137.419 5.77344 138.879 6.33496 139.973 7.45801C140.812 8.31738 141.35 9.31348 141.584 10.4463C141.672 10.915 141.73 11.4668 141.76 12.1016C141.77 12.3457 141.774 12.6387 141.774 12.9805V23H136.794Z" fill="#003ECF"/>
</svg>
