<svg width="290" height="40" viewBox="0 0 343 40" fill="none" xmlns="http://www.w3.org/2000/svg">
<rect width="343" height="40" rx="8" fill="white"/>
<mask id="mask0_616_795" style="mask-type:alpha" maskUnits="userSpaceOnUse" x="8" y="8" width="24" height="24">
<rect x="8" y="8" width="24" height="24" fill="#D9D9D9"/>
</mask>
<g mask="url(#mask0_616_795)">
<path d="M17.5192 23.6153C15.8115 23.6153 14.3654 23.023 13.1808 21.8384C11.9962 20.6538 11.4039 19.2077 11.4039 17.5C11.4039 15.7923 11.9962 14.3462 13.1808 13.1615C14.3654 11.9769 15.8115 11.3846 17.5192 11.3846C19.2269 11.3846 20.6731 11.9769 21.8577 13.1615C23.0423 14.3462 23.6346 15.7923 23.6346 17.5C23.6346 18.2141 23.5147 18.8961 23.275 19.5461C23.0352 20.1961 22.7153 20.7615 22.3153 21.2423L28.0692 26.9961C28.2077 27.1346 28.2785 27.3087 28.2817 27.5183C28.2849 27.7279 28.2141 27.9051 28.0692 28.05C27.9243 28.1948 27.7487 28.2673 27.5423 28.2673C27.3359 28.2673 27.1603 28.1948 27.0154 28.05L21.2615 22.2961C20.7615 22.7089 20.1865 23.032 19.5365 23.2653C18.8865 23.4987 18.2141 23.6153 17.5192 23.6153ZM17.5192 22.1154C18.8077 22.1154 19.899 21.6683 20.7933 20.774C21.6875 19.8798 22.1346 18.7885 22.1346 17.5C22.1346 16.2115 21.6875 15.1202 20.7933 14.2259C19.899 13.3317 18.8077 12.8846 17.5192 12.8846C16.2308 12.8846 15.1394 13.3317 14.2452 14.2259C13.351 15.1202 12.9038 16.2115 12.9038 17.5C12.9038 18.7885 13.351 19.8798 14.2452 20.774C15.1394 21.6683 16.2308 22.1154 17.5192 22.1154Z" fill="#003ECF"/>
</g>
<path d="M45.5234 13.625V25H44.0391V13.625H45.5234ZM49.1797 13.625V14.8594H40.3906V13.625H49.1797ZM52.2109 16.5469V25H50.7656V16.5469H52.2109ZM50.8281 13.0156L52.3359 15.3125H51.0938L49.0781 13.0156H50.8281ZM56.0547 18.2266V25H54.6016V16.5469H55.9766L56.0547 18.2266ZM55.7578 20.4531L55.0859 20.4297C55.0911 19.8516 55.1667 19.3177 55.3125 18.8281C55.4583 18.3333 55.6745 17.9036 55.9609 17.5391C56.2474 17.1745 56.6042 16.8932 57.0312 16.6953C57.4583 16.4922 57.9531 16.3906 58.5156 16.3906C58.9115 16.3906 59.276 16.4479 59.6094 16.5625C59.9427 16.6719 60.2318 16.8464 60.4766 17.0859C60.7214 17.3255 60.9115 17.6328 61.0469 18.0078C61.1823 18.3828 61.25 18.8359 61.25 19.3672V25H59.8047V19.4375C59.8047 18.9948 59.7292 18.6406 59.5781 18.375C59.4323 18.1094 59.224 17.9167 58.9531 17.7969C58.6823 17.6719 58.3646 17.6094 58 17.6094C57.5729 17.6094 57.2161 17.6849 56.9297 17.8359C56.6432 17.987 56.4141 18.1953 56.2422 18.4609C56.0703 18.7266 55.9453 19.0312 55.8672 19.375C55.7943 19.7135 55.7578 20.0729 55.7578 20.4531ZM61.2344 19.6562L60.2656 19.9531C60.2708 19.4896 60.3464 19.0443 60.4922 18.6172C60.6432 18.1901 60.8594 17.8099 61.1406 17.4766C61.4271 17.1432 61.7786 16.8802 62.1953 16.6875C62.612 16.4896 63.0885 16.3906 63.625 16.3906C64.0781 16.3906 64.4792 16.4505 64.8281 16.5703C65.1823 16.6901 65.4792 16.875 65.7188 17.125C65.9635 17.3698 66.1484 17.6849 66.2734 18.0703C66.3984 18.4557 66.4609 18.9141 66.4609 19.4453V25H65.0078V19.4297C65.0078 18.9557 64.9323 18.5885 64.7812 18.3281C64.6354 18.0625 64.4271 17.8776 64.1562 17.7734C63.8906 17.6641 63.5729 17.6094 63.2031 17.6094C62.8854 17.6094 62.6042 17.6641 62.3594 17.7734C62.1146 17.8828 61.9089 18.0339 61.7422 18.2266C61.5755 18.4141 61.4479 18.6302 61.3594 18.875C61.276 19.1198 61.2344 19.3802 61.2344 19.6562ZM74.0703 13V25H72.6172V13H74.0703ZM79.2344 16.5469L75.5469 20.4922L73.4844 22.6328L73.3672 21.0938L74.8438 19.3281L77.4688 16.5469H79.2344ZM77.9141 25L74.8984 20.9688L75.6484 19.6797L79.6172 25H77.9141ZM82.2969 16.5469V25H80.8438V16.5469H82.2969ZM80.7344 14.3047C80.7344 14.0703 80.8047 13.8724 80.9453 13.7109C81.0911 13.5495 81.3047 13.4688 81.5859 13.4688C81.862 13.4688 82.0729 13.5495 82.2188 13.7109C82.3698 13.8724 82.4453 14.0703 82.4453 14.3047C82.4453 14.5286 82.3698 14.7214 82.2188 14.8828C82.0729 15.0391 81.862 15.1172 81.5859 15.1172C81.3047 15.1172 81.0911 15.0391 80.9453 14.8828C80.8047 14.7214 80.7344 14.5286 80.7344 14.3047ZM88.125 25.1562C87.5365 25.1562 87.0026 25.0573 86.5234 24.8594C86.0495 24.6562 85.6406 24.3724 85.2969 24.0078C84.9583 23.6432 84.6979 23.2109 84.5156 22.7109C84.3333 22.2109 84.2422 21.6641 84.2422 21.0703V20.7422C84.2422 20.0547 84.3438 19.4427 84.5469 18.9062C84.75 18.3646 85.026 17.9062 85.375 17.5312C85.724 17.1562 86.1198 16.8724 86.5625 16.6797C87.0052 16.487 87.4635 16.3906 87.9375 16.3906C88.5417 16.3906 89.0625 16.4948 89.5 16.7031C89.9427 16.9115 90.3047 17.2031 90.5859 17.5781C90.8672 17.9479 91.0755 18.3854 91.2109 18.8906C91.3464 19.3906 91.4141 19.9375 91.4141 20.5312V21.1797H85.1016V20H89.9688V19.8906C89.9479 19.5156 89.8698 19.151 89.7344 18.7969C89.6042 18.4427 89.3958 18.151 89.1094 17.9219C88.8229 17.6927 88.4323 17.5781 87.9375 17.5781C87.6094 17.5781 87.3073 17.6484 87.0312 17.7891C86.7552 17.9245 86.5182 18.1276 86.3203 18.3984C86.1224 18.6693 85.9688 19 85.8594 19.3906C85.75 19.7812 85.6953 20.2318 85.6953 20.7422V21.0703C85.6953 21.4714 85.75 21.849 85.8594 22.2031C85.974 22.5521 86.138 22.8594 86.3516 23.125C86.5703 23.3906 86.8333 23.599 87.1406 23.75C87.4531 23.901 87.8073 23.9766 88.2031 23.9766C88.7135 23.9766 89.1458 23.8724 89.5 23.6641C89.8542 23.4557 90.1641 23.1771 90.4297 22.8281L91.3047 23.5234C91.1224 23.7995 90.8906 24.0625 90.6094 24.3125C90.3281 24.5625 89.9818 24.7656 89.5703 24.9219C89.1641 25.0781 88.6823 25.1562 88.125 25.1562ZM85.0625 15.2969L87.3359 13.25H88.5234L90.7969 15.2969H89.2578L87.9297 14.0625L86.6016 15.2969H85.0625ZM90.2188 13.9141L91.3203 11.8984H92.8828L91.3125 13.9141H90.2188ZM94.5391 18.2266V25H93.0859V16.5469H94.4609L94.5391 18.2266ZM94.2422 20.4531L93.5703 20.4297C93.5755 19.8516 93.651 19.3177 93.7969 18.8281C93.9427 18.3333 94.1589 17.9036 94.4453 17.5391C94.7318 17.1745 95.0885 16.8932 95.5156 16.6953C95.9427 16.4922 96.4375 16.3906 97 16.3906C97.3958 16.3906 97.7604 16.4479 98.0938 16.5625C98.4271 16.6719 98.7161 16.8464 98.9609 17.0859C99.2057 17.3255 99.3958 17.6328 99.5312 18.0078C99.6667 18.3828 99.7344 18.8359 99.7344 19.3672V25H98.2891V19.4375C98.2891 18.9948 98.2135 18.6406 98.0625 18.375C97.9167 18.1094 97.7083 17.9167 97.4375 17.7969C97.1667 17.6719 96.849 17.6094 96.4844 17.6094C96.0573 17.6094 95.7005 17.6849 95.4141 17.8359C95.1276 17.987 94.8984 18.1953 94.7266 18.4609C94.5547 18.7266 94.4297 19.0312 94.3516 19.375C94.2786 19.7135 94.2422 20.0729 94.2422 20.4531ZM99.7188 19.6562L98.75 19.9531C98.7552 19.4896 98.8307 19.0443 98.9766 18.6172C99.1276 18.1901 99.3438 17.8099 99.625 17.4766C99.9115 17.1432 100.263 16.8802 100.68 16.6875C101.096 16.4896 101.573 16.3906 102.109 16.3906C102.562 16.3906 102.964 16.4505 103.312 16.5703C103.667 16.6901 103.964 16.875 104.203 17.125C104.448 17.3698 104.633 17.6849 104.758 18.0703C104.883 18.4557 104.945 18.9141 104.945 19.4453V25H103.492V19.4297C103.492 18.9557 103.417 18.5885 103.266 18.3281C103.12 18.0625 102.911 17.8776 102.641 17.7734C102.375 17.6641 102.057 17.6094 101.688 17.6094C101.37 17.6094 101.089 17.6641 100.844 17.7734C100.599 17.8828 100.393 18.0339 100.227 18.2266C100.06 18.4141 99.9323 18.6302 99.8438 18.875C99.7604 19.1198 99.7188 19.3802 99.7188 19.6562ZM116.023 22.7578C116.023 22.5495 115.977 22.3568 115.883 22.1797C115.794 21.9974 115.609 21.8333 115.328 21.6875C115.052 21.5365 114.635 21.4062 114.078 21.2969C113.609 21.1979 113.185 21.0807 112.805 20.9453C112.43 20.8099 112.109 20.6458 111.844 20.4531C111.583 20.2604 111.383 20.0339 111.242 19.7734C111.102 19.513 111.031 19.2083 111.031 18.8594C111.031 18.526 111.104 18.2109 111.25 17.9141C111.401 17.6172 111.612 17.3542 111.883 17.125C112.159 16.8958 112.49 16.7161 112.875 16.5859C113.26 16.4557 113.69 16.3906 114.164 16.3906C114.841 16.3906 115.419 16.5104 115.898 16.75C116.378 16.9896 116.745 17.3099 117 17.7109C117.255 18.1068 117.383 18.5469 117.383 19.0312H115.938C115.938 18.7969 115.867 18.5703 115.727 18.3516C115.591 18.1276 115.391 17.9427 115.125 17.7969C114.865 17.651 114.544 17.5781 114.164 17.5781C113.763 17.5781 113.438 17.6406 113.188 17.7656C112.943 17.8854 112.763 18.0391 112.648 18.2266C112.539 18.4141 112.484 18.612 112.484 18.8203C112.484 18.9766 112.51 19.1172 112.562 19.2422C112.62 19.362 112.719 19.474 112.859 19.5781C113 19.6771 113.198 19.7708 113.453 19.8594C113.708 19.9479 114.034 20.0365 114.43 20.125C115.122 20.2812 115.693 20.4688 116.141 20.6875C116.589 20.9062 116.922 21.1745 117.141 21.4922C117.359 21.8099 117.469 22.1953 117.469 22.6484C117.469 23.0182 117.391 23.3568 117.234 23.6641C117.083 23.9714 116.862 24.237 116.57 24.4609C116.284 24.6797 115.94 24.8516 115.539 24.9766C115.143 25.0964 114.698 25.1562 114.203 25.1562C113.458 25.1562 112.828 25.0234 112.312 24.7578C111.797 24.4922 111.406 24.1484 111.141 23.7266C110.875 23.3047 110.742 22.8594 110.742 22.3906H112.195C112.216 22.7865 112.331 23.1016 112.539 23.3359C112.747 23.5651 113.003 23.7292 113.305 23.8281C113.607 23.9219 113.906 23.9688 114.203 23.9688C114.599 23.9688 114.93 23.9167 115.195 23.8125C115.466 23.7083 115.672 23.5651 115.812 23.3828C115.953 23.2005 116.023 22.9922 116.023 22.7578ZM124.352 23.5547V19.2031C124.352 18.8698 124.284 18.5807 124.148 18.3359C124.018 18.0859 123.82 17.8932 123.555 17.7578C123.289 17.6224 122.961 17.5547 122.57 17.5547C122.206 17.5547 121.885 17.6172 121.609 17.7422C121.339 17.8672 121.125 18.0312 120.969 18.2344C120.818 18.4375 120.742 18.6562 120.742 18.8906H119.297C119.297 18.5885 119.375 18.2891 119.531 17.9922C119.688 17.6953 119.911 17.4271 120.203 17.1875C120.5 16.9427 120.854 16.75 121.266 16.6094C121.682 16.4635 122.146 16.3906 122.656 16.3906C123.271 16.3906 123.812 16.4948 124.281 16.7031C124.755 16.9115 125.125 17.2266 125.391 17.6484C125.661 18.0651 125.797 18.5885 125.797 19.2188V23.1562C125.797 23.4375 125.82 23.737 125.867 24.0547C125.919 24.3724 125.995 24.6458 126.094 24.875V25H124.586C124.513 24.8333 124.456 24.612 124.414 24.3359C124.372 24.0547 124.352 23.7943 124.352 23.5547ZM124.602 19.875L124.617 20.8906H123.156C122.745 20.8906 122.378 20.9245 122.055 20.9922C121.732 21.0547 121.461 21.151 121.242 21.2812C121.023 21.4115 120.857 21.5755 120.742 21.7734C120.628 21.9661 120.57 22.1927 120.57 22.4531C120.57 22.7188 120.63 22.9609 120.75 23.1797C120.87 23.3984 121.049 23.5729 121.289 23.7031C121.534 23.8281 121.833 23.8906 122.188 23.8906C122.63 23.8906 123.021 23.7969 123.359 23.6094C123.698 23.4219 123.966 23.1927 124.164 22.9219C124.367 22.651 124.477 22.388 124.492 22.1328L125.109 22.8281C125.073 23.0469 124.974 23.2891 124.812 23.5547C124.651 23.8203 124.435 24.0755 124.164 24.3203C123.898 24.5599 123.581 24.7604 123.211 24.9219C122.846 25.0781 122.435 25.1562 121.977 25.1562C121.404 25.1562 120.901 25.0443 120.469 24.8203C120.042 24.5964 119.708 24.2969 119.469 23.9219C119.234 23.5417 119.117 23.1172 119.117 22.6484C119.117 22.1953 119.206 21.7969 119.383 21.4531C119.56 21.1042 119.815 20.8151 120.148 20.5859C120.482 20.3516 120.883 20.1745 121.352 20.0547C121.82 19.9349 122.344 19.875 122.922 19.875H124.602ZM123.359 15.1719H122.32L122.312 13.9844C122.578 13.9688 122.794 13.9427 122.961 13.9062C123.128 13.8646 123.25 13.8047 123.328 13.7266C123.406 13.6432 123.445 13.5339 123.445 13.3984C123.445 13.2891 123.411 13.1979 123.344 13.125C123.276 13.0469 123.182 12.9844 123.062 12.9375C122.943 12.8854 122.805 12.849 122.648 12.8281C122.492 12.8073 122.326 12.7969 122.148 12.7969L122.203 11.9688C122.589 11.9688 122.927 12.0026 123.219 12.0703C123.516 12.138 123.763 12.237 123.961 12.3672C124.164 12.4974 124.315 12.6536 124.414 12.8359C124.518 13.013 124.57 13.2109 124.57 13.4297C124.57 13.8255 124.445 14.1146 124.195 14.2969C123.945 14.474 123.669 14.5833 123.367 14.625L123.359 15.1719ZM129.516 18.3516V25H128.07V16.5469H129.438L129.516 18.3516ZM129.172 20.4531L128.57 20.4297C128.576 19.8516 128.661 19.3177 128.828 18.8281C128.995 18.3333 129.229 17.9036 129.531 17.5391C129.833 17.1745 130.193 16.8932 130.609 16.6953C131.031 16.4922 131.497 16.3906 132.008 16.3906C132.424 16.3906 132.799 16.4479 133.133 16.5625C133.466 16.6719 133.75 16.849 133.984 17.0938C134.224 17.3385 134.406 17.6562 134.531 18.0469C134.656 18.4323 134.719 18.9036 134.719 19.4609V25H133.266V19.4453C133.266 19.0026 133.201 18.6484 133.07 18.3828C132.94 18.112 132.75 17.9167 132.5 17.7969C132.25 17.6719 131.943 17.6094 131.578 17.6094C131.219 17.6094 130.891 17.6849 130.594 17.8359C130.302 17.987 130.049 18.1953 129.836 18.4609C129.628 18.7266 129.464 19.0312 129.344 19.375C129.229 19.7135 129.172 20.0729 129.172 20.4531ZM142.328 18.1719V28.25H140.875V16.5469H142.203L142.328 18.1719ZM148.023 20.7031V20.8672C148.023 21.4818 147.951 22.0521 147.805 22.5781C147.659 23.099 147.445 23.5521 147.164 23.9375C146.888 24.3229 146.547 24.6224 146.141 24.8359C145.734 25.0495 145.268 25.1562 144.742 25.1562C144.206 25.1562 143.732 25.0677 143.32 24.8906C142.909 24.7135 142.56 24.4557 142.273 24.1172C141.987 23.7786 141.758 23.3724 141.586 22.8984C141.419 22.4245 141.305 21.8906 141.242 21.2969V20.4219C141.305 19.7969 141.422 19.237 141.594 18.7422C141.766 18.2474 141.992 17.8255 142.273 17.4766C142.56 17.1224 142.906 16.8542 143.312 16.6719C143.719 16.4844 144.188 16.3906 144.719 16.3906C145.25 16.3906 145.721 16.4948 146.133 16.7031C146.544 16.9062 146.891 17.1979 147.172 17.5781C147.453 17.9583 147.664 18.4141 147.805 18.9453C147.951 19.4714 148.023 20.0573 148.023 20.7031ZM146.57 20.8672V20.7031C146.57 20.2812 146.526 19.8854 146.438 19.5156C146.349 19.1406 146.211 18.8125 146.023 18.5312C145.841 18.2448 145.607 18.0208 145.32 17.8594C145.034 17.6927 144.693 17.6094 144.297 17.6094C143.932 17.6094 143.615 17.6719 143.344 17.7969C143.078 17.9219 142.852 18.0911 142.664 18.3047C142.477 18.513 142.323 18.7526 142.203 19.0234C142.089 19.2891 142.003 19.5651 141.945 19.8516V21.875C142.049 22.2396 142.195 22.5833 142.383 22.9062C142.57 23.224 142.82 23.4818 143.133 23.6797C143.445 23.8724 143.839 23.9688 144.312 23.9688C144.703 23.9688 145.039 23.888 145.32 23.7266C145.607 23.5599 145.841 23.3333 146.023 23.0469C146.211 22.7604 146.349 22.4323 146.438 22.0625C146.526 21.6875 146.57 21.2891 146.57 20.8672ZM151.312 13V25H149.867V13H151.312ZM150.969 20.4531L150.367 20.4297C150.372 19.8516 150.458 19.3177 150.625 18.8281C150.792 18.3333 151.026 17.9036 151.328 17.5391C151.63 17.1745 151.99 16.8932 152.406 16.6953C152.828 16.4922 153.294 16.3906 153.805 16.3906C154.221 16.3906 154.596 16.4479 154.93 16.5625C155.263 16.6719 155.547 16.849 155.781 17.0938C156.021 17.3385 156.203 17.6562 156.328 18.0469C156.453 18.4323 156.516 18.9036 156.516 19.4609V25H155.062V19.4453C155.062 19.0026 154.997 18.6484 154.867 18.3828C154.737 18.112 154.547 17.9167 154.297 17.7969C154.047 17.6719 153.74 17.6094 153.375 17.6094C153.016 17.6094 152.688 17.6849 152.391 17.8359C152.099 17.987 151.846 18.1953 151.633 18.4609C151.424 18.7266 151.26 19.0312 151.141 19.375C151.026 19.7135 150.969 20.0729 150.969 20.4531ZM163.664 23.5547V19.2031C163.664 18.8698 163.596 18.5807 163.461 18.3359C163.331 18.0859 163.133 17.8932 162.867 17.7578C162.602 17.6224 162.273 17.5547 161.883 17.5547C161.518 17.5547 161.198 17.6172 160.922 17.7422C160.651 17.8672 160.438 18.0312 160.281 18.2344C160.13 18.4375 160.055 18.6562 160.055 18.8906H158.609C158.609 18.5885 158.688 18.2891 158.844 17.9922C159 17.6953 159.224 17.4271 159.516 17.1875C159.812 16.9427 160.167 16.75 160.578 16.6094C160.995 16.4635 161.458 16.3906 161.969 16.3906C162.583 16.3906 163.125 16.4948 163.594 16.7031C164.068 16.9115 164.438 17.2266 164.703 17.6484C164.974 18.0651 165.109 18.5885 165.109 19.2188V23.1562C165.109 23.4375 165.133 23.737 165.18 24.0547C165.232 24.3724 165.307 24.6458 165.406 24.875V25H163.898C163.826 24.8333 163.768 24.612 163.727 24.3359C163.685 24.0547 163.664 23.7943 163.664 23.5547ZM163.914 19.875L163.93 20.8906H162.469C162.057 20.8906 161.69 20.9245 161.367 20.9922C161.044 21.0547 160.773 21.151 160.555 21.2812C160.336 21.4115 160.169 21.5755 160.055 21.7734C159.94 21.9661 159.883 22.1927 159.883 22.4531C159.883 22.7188 159.943 22.9609 160.062 23.1797C160.182 23.3984 160.362 23.5729 160.602 23.7031C160.846 23.8281 161.146 23.8906 161.5 23.8906C161.943 23.8906 162.333 23.7969 162.672 23.6094C163.01 23.4219 163.279 23.1927 163.477 22.9219C163.68 22.651 163.789 22.388 163.805 22.1328L164.422 22.8281C164.385 23.0469 164.286 23.2891 164.125 23.5547C163.964 23.8203 163.747 24.0755 163.477 24.3203C163.211 24.5599 162.893 24.7604 162.523 24.9219C162.159 25.0781 161.747 25.1562 161.289 25.1562C160.716 25.1562 160.214 25.0443 159.781 24.8203C159.354 24.5964 159.021 24.2969 158.781 23.9219C158.547 23.5417 158.43 23.1172 158.43 22.6484C158.43 22.1953 158.518 21.7969 158.695 21.4531C158.872 21.1042 159.128 20.8151 159.461 20.5859C159.794 20.3516 160.195 20.1745 160.664 20.0547C161.133 19.9349 161.656 19.875 162.234 19.875H163.914ZM162.844 13.375L164.984 15.4297H163.648L162.109 13.9766L160.578 15.4297H159.25L161.375 13.375H162.844ZM165.227 14.3516H164.328L164.32 13.3203C164.549 13.3047 164.734 13.2812 164.875 13.25C165.016 13.2188 165.12 13.1719 165.188 13.1094C165.255 13.0417 165.289 12.9505 165.289 12.8359C165.289 12.7057 165.24 12.6042 165.141 12.5312C165.042 12.4531 164.909 12.3984 164.742 12.3672C164.576 12.3307 164.391 12.3125 164.188 12.3125L164.234 11.5859C164.568 11.5859 164.859 11.6172 165.109 11.6797C165.365 11.737 165.578 11.8229 165.75 11.9375C165.927 12.0469 166.06 12.1797 166.148 12.3359C166.237 12.487 166.281 12.6589 166.281 12.8516C166.281 13.1901 166.172 13.4375 165.953 13.5938C165.74 13.7448 165.5 13.8385 165.234 13.875L165.227 14.3516ZM168.82 18.2266V25H167.367V16.5469H168.742L168.82 18.2266ZM168.523 20.4531L167.852 20.4297C167.857 19.8516 167.932 19.3177 168.078 18.8281C168.224 18.3333 168.44 17.9036 168.727 17.5391C169.013 17.1745 169.37 16.8932 169.797 16.6953C170.224 16.4922 170.719 16.3906 171.281 16.3906C171.677 16.3906 172.042 16.4479 172.375 16.5625C172.708 16.6719 172.997 16.8464 173.242 17.0859C173.487 17.3255 173.677 17.6328 173.812 18.0078C173.948 18.3828 174.016 18.8359 174.016 19.3672V25H172.57V19.4375C172.57 18.9948 172.495 18.6406 172.344 18.375C172.198 18.1094 171.99 17.9167 171.719 17.7969C171.448 17.6719 171.13 17.6094 170.766 17.6094C170.339 17.6094 169.982 17.6849 169.695 17.8359C169.409 17.987 169.18 18.1953 169.008 18.4609C168.836 18.7266 168.711 19.0312 168.633 19.375C168.56 19.7135 168.523 20.0729 168.523 20.4531ZM174 19.6562L173.031 19.9531C173.036 19.4896 173.112 19.0443 173.258 18.6172C173.409 18.1901 173.625 17.8099 173.906 17.4766C174.193 17.1432 174.544 16.8802 174.961 16.6875C175.378 16.4896 175.854 16.3906 176.391 16.3906C176.844 16.3906 177.245 16.4505 177.594 16.5703C177.948 16.6901 178.245 16.875 178.484 17.125C178.729 17.3698 178.914 17.6849 179.039 18.0703C179.164 18.4557 179.227 18.9141 179.227 19.4453V25H177.773V19.4297C177.773 18.9557 177.698 18.5885 177.547 18.3281C177.401 18.0625 177.193 17.8776 176.922 17.7734C176.656 17.6641 176.339 17.6094 175.969 17.6094C175.651 17.6094 175.37 17.6641 175.125 17.7734C174.88 17.8828 174.674 18.0339 174.508 18.2266C174.341 18.4141 174.214 18.6302 174.125 18.875C174.042 19.1198 174 19.3802 174 19.6562Z" fill="#00123D" fill-opacity="0.3"/>
</svg>
